<?xml version="1.0" encoding="iso-8859-1"?>
<!-- Generator: Adobe Illustrator 19.0.0, SVG Export Plug-In . SVG Version: 6.00 Build 0)  -->
<svg version="1.1" id="Capa_1" xmlns="http://www.w3.org/2000/svg" xmlns:xlink="http://www.w3.org/1999/xlink" x="0px" y="0px"
	 viewBox="0 0 512 512" style="enable-background:new 0 0 512 512;" xml:space="preserve">
<path style="fill:#F41A12;" d="M512,256c0,42.684-10.449,82.923-28.923,118.314C440.362,456.14,354.701,512,256,512
	C138.24,512,39.058,432.494,9.195,324.232C3.197,302.508,0,279.625,0,256c0-24.451,3.427-48.097,9.822-70.489
	C40.438,78.399,139.065,0,256,0c97.593,0,182.439,54.617,225.625,134.949c1.087,2.017,2.152,4.054,3.187,6.113
	C502.209,175.626,512,214.674,512,256z"/>
<path style="fill:#EDEDED;" d="M512,134.949V256c0,42.684-10.449,82.923-28.923,118.314c-1.212,0.439-2.456,0.836-3.73,1.181
	c-19.529,5.298-39.518-2.873-49.748-20.344l-59.214-101.146v79.026c0,20.208-13.103,37.355-32.601,42.674
	c-3.981,1.076-7.973,1.609-11.912,1.609c-15.339,0-29.665-7.983-37.825-21.838L228.77,254.819v76.654
	c0,24.377-19.843,44.22-44.22,44.22h-76.716c-40.761,0-76.863-20.365-98.638-51.461C3.197,302.508,0,279.625,0,256
	c0-24.451,3.427-48.097,9.822-70.489c21.859-30.584,57.647-50.563,98.011-50.563h36.54v64.575h-36.54
	c-30.762,0-55.798,25.036-55.798,55.798c0,30.772,25.036,55.798,55.798,55.798h56.362V180.161c0-20.208,13.093-37.355,32.59-42.663
	c19.508-5.319,39.487,2.811,49.748,20.229l59.277,100.655V178.97c0-20.229,13.113-37.386,32.653-42.684
	c19.519-5.298,39.518,2.873,49.737,20.344l59.225,101.146V134.949H512z"/>
<path style="fill:#FF0000;" d="M326.048,350.088c-5.908,0-11.427-3.073-14.571-8.411l-97.162-164.982
	c-1.955-3.32-5.254-3.791-7.694-3.128c-2.438,0.665-5.042,2.747-5.042,6.6v151.303c0,9.394-7.642,17.037-17.035,17.037h-76.711
	c-51.381,0-93.183-41.801-93.183-93.182s41.802-93.182,93.183-93.182h36.536v10.196h-36.536c-45.758,0-82.987,37.228-82.987,82.986
	s37.229,82.986,82.987,82.986h76.711c3.77,0,6.839-3.069,6.839-6.841V180.165c0-7.784,5.047-14.389,12.556-16.437
	c7.511-2.047,15.212,1.085,19.161,7.792l97.162,164.982c1.956,3.32,5.256,3.792,7.694,3.128c2.438-0.665,5.042-2.746,5.042-6.6
	V178.972c0-7.795,5.055-14.402,12.577-16.443c7.521-2.042,15.223,1.109,19.161,7.835l97.131,165.902
	c1.95,3.328,5.25,3.807,7.694,3.145c2.441-0.662,5.05-2.745,5.05-6.603V134.952h10.196v197.857c0,7.795-5.055,14.402-12.577,16.443
	c-7.522,2.041-15.223-1.108-19.161-7.835l-97.131-165.902c-1.95-3.327-5.245-3.806-7.694-3.145c-2.441,0.662-5.05,2.745-5.05,6.603
	v154.059c0,7.785-5.047,14.389-12.555,16.437C329.105,349.885,327.563,350.088,326.048,350.088z"/>
<g>
</g>
<g>
</g>
<g>
</g>
<g>
</g>
<g>
</g>
<g>
</g>
<g>
</g>
<g>
</g>
<g>
</g>
<g>
</g>
<g>
</g>
<g>
</g>
<g>
</g>
<g>
</g>
<g>
</g>
</svg>
